HIERARCHY
ROOT joint_Root
{
	OFFSET 0.0 0.0 0.0
	CHANNELS 6 Xposition Yposition Zposition Zrotation Xrotation Yrotation 
	JOINT Hips
	{
		OFFSET 4.5925 91.4895 -427.239
		CHANNELS 6 Xposition Yposition Zposition Zrotation Xrotation Yrotation 
		JOINT Spine
		{
			OFFSET 15.7357 0.0 0.0
			CHANNELS 6 Xposition Yposition Zposition Zrotation Xrotation Yrotation 
			JOINT Chest
			{
				OFFSET 8.98455 -0.406207 0.0
				CHANNELS 6 Xposition Yposition Zposition Zrotation Xrotation Yrotation 
				JOINT Neck
				{
					OFFSET 16.3773 0.0 0.0
					CHANNELS 6 Xposition Yposition Zposition Zrotation Xrotation Yrotation 
					JOINT Head
					{
						OFFSET 6.45672 0.0 0.0
						CHANNELS 6 Xposition Yposition Zposition Zrotation Xrotation Yrotation 
						End Site
						{
							OFFSET 0.0 0.0 0.0
						}
					}
				}
				JOINT Shoulder_L
				{
					OFFSET 12.9942 -0.242716 4.98039
					CHANNELS 6 Xposition Yposition Zposition Zrotation Xrotation Yrotation 
					JOINT UpperArm_L
					{
						OFFSET 5.34809 0.0 0.0
						CHANNELS 6 Xposition Yposition Zposition Zrotation Xrotation Yrotation 
						JOINT LowerArm_L
						{
							OFFSET 24.3286 1.87007e-05 0.0
							CHANNELS 6 Xposition Yposition Zposition Zrotation Xrotation Yrotation 
							JOINT Hand_L
							{
								OFFSET 22.2916 0.0 0.0
								CHANNELS 6 Xposition Yposition Zposition Zrotation Xrotation Yrotation 
								End Site
								{
									OFFSET 0.0 0.0 0.0
								}
							}
						}
					}
				}
				JOINT Shoulder_R
				{
					OFFSET 12.9945 -0.242716 -4.98039
					CHANNELS 6 Xposition Yposition Zposition Zrotation Xrotation Yrotation 
					JOINT UpperArm_R
					{
						OFFSET -5.34813 0.0 0.0
						CHANNELS 6 Xposition Yposition Zposition Zrotation Xrotation Yrotation 
						JOINT LowerArm_R
						{
							OFFSET -24.3289 0.000322201 0.0
							CHANNELS 6 Xposition Yposition Zposition Zrotation Xrotation Yrotation 
							JOINT Hand_R
							{
								OFFSET -22.2915 -0.000108084 0.0
								CHANNELS 6 Xposition Yposition Zposition Zrotation Xrotation Yrotation 
								End Site
								{
									OFFSET 0.0 0.0 0.0
								}
							}
						}
					}
				}
			}
		}
		JOINT UpperLeg_L
		{
			OFFSET -2.19248 -6.46944 0.0
			CHANNELS 6 Xposition Yposition Zposition Zrotation Xrotation Yrotation 
			JOINT LowerLeg_L
			{
				OFFSET 39.0811 0.0 -1.23785e-05
				CHANNELS 6 Xposition Yposition Zposition Zrotation Xrotation Yrotation 
				JOINT Foot_L
				{
					OFFSET 40.9854 0.0 -1.26872e-05
					CHANNELS 6 Xposition Yposition Zposition Zrotation Xrotation Yrotation 
					JOINT Toes_L
					{
						OFFSET 11.7543 0.0 0.0
						CHANNELS 6 Xposition Yposition Zposition Zrotation Xrotation Yrotation 
						End Site
						{
							OFFSET 0.0 0.0 0.0
						}
					}
				}
			}
		}
		JOINT UpperLeg_R
		{
			OFFSET -2.19251 6.46944 0.0
			CHANNELS 6 Xposition Yposition Zposition Zrotation Xrotation Yrotation 
			JOINT LowerLeg_R
			{
				OFFSET -39.0811 -0.00228153 -0.0401928
				CHANNELS 6 Xposition Yposition Zposition Zrotation Xrotation Yrotation 
				JOINT Foot_R
				{
					OFFSET -40.9854 0.0 0.0
					CHANNELS 6 Xposition Yposition Zposition Zrotation Xrotation Yrotation 
					JOINT Toes_R
					{
						OFFSET -11.7543 0.0 0.0
						CHANNELS 6 Xposition Yposition Zposition Zrotation Xrotation Yrotation 
						End Site
						{
							OFFSET 0.0 0.0 0.0
						}
					}
				}
			}
		}
	}
}
MOTION
Frames:	5
Frame Time:	0.0333333
0.000000 0.000000 0.000000 0.000000 0.000000 -0.000000 -3.259730 90.969100 -1.249900 89.330400 0.288525 11.539500 15.735700 0.000005 -0.000001 88.017000 76.737900 -88.026100 8.984550 -0.406207 -0.000000 18.743900 -0.900496 0.130391 16.377300 -0.000001 -0.000001 6.494100 -3.894500 1.973210 6.456720 -0.000001 -0.000000 -6.478590 -3.217030 1.116070 12.994200 -0.242716 4.980390 -91.284200 7.621480 -80.406100 5.348090 -0.000007 -0.000001 -56.896000 35.620100 -28.140400 24.328600 0.000019 0.000005 10.616500 24.188600 -24.582400 22.291600 -0.000001 0.000005 10.248800 5.267380 0.968861 12.994500 -0.242716 -4.980390 89.319600 11.903600 -86.705100 -5.348130 -0.000001 -0.000004 -57.424200 30.686200 -23.001100 -24.328900 0.000322 -0.000009 4.341350 8.958290 -25.996200 -22.291500 -0.000108 -0.000004 19.111200 5.384020 -2.425080 -2.192480 -6.469440 -0.000000 -172.439000 -12.786200 0.094262 39.081100 -0.000007 -0.000012 -0.147696 0.252953 30.280400 40.985400 -0.000006 -0.000013 -0.252333 9.354530 -68.348200 11.754300 -0.000000 0.000003 -0.000255 -0.002268 -16.662500 -2.192510 6.469440 -0.000001 173.728000 26.132100 -176.985000 -39.081100 -0.002282 -0.040193 -0.197893 0.356276 29.454600 -40.985400 0.000008 0.000006 6.195020 17.465500 -70.715100 -11.754300 -0.000006 -0.000006 -0.000986 -0.015213 -17.191800
0.000000 0.000000 0.000000 0.000000 0.000000 -0.000000 -3.265160 90.965200 -1.263650 89.322100 0.268142 11.548200 15.735700 0.000005 -0.000001 87.967600 76.707800 -87.991700 8.984550 -0.406207 -0.000000 18.803100 -0.926329 0.105009 16.377300 -0.000001 -0.000001 6.443980 -3.868570 1.875140 6.456720 -0.000001 -0.000000 -6.501460 -3.199190 1.119290 12.994200 -0.242716 4.980390 -91.280200 7.583760 -80.389500 5.348090 -0.000007 -0.000001 -56.861800 35.683500 -28.214700 24.328600 0.000019 0.000005 10.649700 24.240400 -24.608100 22.291600 -0.000001 0.000005 10.257500 5.268450 0.940014 12.994500 -0.242716 -4.980390 89.312800 11.970900 -86.690500 -5.348130 -0.000001 -0.000004 -57.972700 29.429300 -22.420400 -24.328900 0.000322 -0.000009 4.683000 8.939490 -27.801800 -22.291500 -0.000108 -0.000004 19.163300 5.384130 -2.428670 -2.192480 -6.469440 -0.000000 -172.428000 -12.781000 0.085630 39.081100 -0.000007 -0.000012 -0.148220 0.253572 30.307700 40.985400 -0.000006 -0.000013 -0.258843 9.331210 -68.356700 11.754300 -0.000000 0.000003 -0.000268 -0.002371 -16.666200 -2.192510 6.469440 -0.000001 173.727000 26.135800 -176.985000 -39.081100 -0.002282 -0.040193 -0.200707 0.360993 29.472600 -40.985400 0.000008 0.000006 6.206950 17.494000 -70.725100 -11.754300 -0.000006 -0.000006 -0.001114 -0.017010 -17.264900
0.000000 0.000000 0.000000 0.000000 0.000000 -0.000000 -3.266350 90.970500 -1.281500 89.322000 0.267560 11.605300 15.735700 0.000005 -0.000001 87.914200 76.666200 -87.947200 8.984550 -0.406207 -0.000000 18.885600 -0.954313 0.092414 16.377300 -0.000001 -0.000001 6.419930 -3.851400 1.781440 6.456720 -0.000001 -0.000000 -6.544430 -3.179990 1.046270 12.994200 -0.242716 4.980390 -91.271800 7.573580 -80.438500 5.348090 -0.000007 -0.000001 -56.894200 35.636000 -28.195600 24.328600 0.000019 0.000005 10.639000 24.215800 -24.606400 22.291600 -0.000001 0.000005 10.321200 5.269390 0.914569 12.994500 -0.242716 -4.980390 89.298800 12.017600 -86.636100 -5.348130 -0.000001 -0.000004 -58.350300 28.276600 -21.895300 -24.328900 0.000322 -0.000009 4.948860 8.619780 -30.022100 -22.291500 -0.000108 -0.000004 19.469000 5.387260 -2.527950 -2.192480 -6.469440 -0.000000 -172.407000 -12.802300 0.146456 39.081100 -0.000007 -0.000012 -0.150484 0.257725 30.280600 40.985400 -0.000006 -0.000013 -0.262075 9.336630 -68.328700 11.754300 -0.000000 0.000003 -0.000261 -0.002317 -16.664300 -2.192510 6.469440 -0.000001 173.708000 26.170100 -176.928000 -39.081100 -0.002282 -0.040193 -0.196213 0.353355 29.450800 -40.985400 0.000008 0.000006 6.216430 17.503800 -70.700500 -11.754300 -0.000006 -0.000006 -0.001095 -0.016741 -17.254000
0.000000 0.000000 0.000000 0.000000 0.000000 -0.000000 -3.264790 90.966100 -1.307140 89.324500 0.242558 11.573600 15.735700 0.000005 -0.000001 87.846500 76.653300 -87.900100 8.984550 -0.406207 -0.000000 18.910000 -0.988046 0.057098 16.377300 -0.000001 -0.000001 6.417940 -3.837470 1.677690 6.456720 -0.000001 -0.000000 -6.572970 -3.154230 1.013020 12.994200 -0.242716 4.980390 -91.264600 7.533160 -80.441900 5.348090 -0.000007 -0.000001 -56.886800 35.627000 -28.217900 24.328600 0.000019 0.000005 10.674200 24.332400 -24.582000 22.291600 -0.000001 0.000005 10.210800 5.266490 0.992967 12.994500 -0.242716 -4.980390 89.284000 12.083700 -86.583700 -5.348130 -0.000001 -0.000004 -58.610200 27.102200 -21.463600 -24.328900 0.000322 -0.000009 5.424660 8.552810 -32.564400 -22.291500 -0.000108 -0.000004 19.757100 5.388850 -2.578600 -2.192480 -6.469440 -0.000000 -172.427000 -12.825500 0.079931 39.081100 -0.000007 -0.000012 -0.147675 0.252541 30.317500 40.985400 -0.000006 -0.000013 -0.255199 9.315310 -68.330600 11.754300 -0.000000 0.000003 -0.000259 -0.002303 -16.663700 -2.192510 6.469440 -0.000001 173.745000 26.097200 -177.012000 -39.081100 -0.002282 -0.040193 -0.198674 0.357139 29.490200 -40.985400 0.000008 0.000006 6.212160 17.477200 -70.698700 -11.754300 -0.000006 -0.000006 -0.001105 -0.016888 -17.259900
0.000000 0.000000 0.000000 0.000000 0.000000 -0.000000 -3.257600 90.972100 -1.311710 89.314700 0.186602 11.643900 15.735700 0.000005 -0.000001 87.789400 76.614400 -87.859100 8.984550 -0.406207 -0.000000 18.986800 -1.018490 0.030449 16.377300 -0.000001 -0.000001 6.484300 -3.815220 1.536710 6.456720 -0.000001 -0.000000 -6.653040 -3.134590 0.998893 12.994200 -0.242716 4.980390 -91.259300 7.517120 -80.461800 5.348090 -0.000007 -0.000001 -56.913400 35.559300 -28.153300 24.328600 0.000019 0.000005 10.698000 24.395500 -24.578700 22.291600 -0.000001 0.000005 10.217400 5.265750 1.012770 12.994500 -0.242716 -4.980390 89.267500 12.078100 -86.503600 -5.348130 -0.000001 -0.000004 -58.714000 26.135000 -21.232000 -24.328900 0.000322 -0.000009 6.097350 8.694730 -35.251200 -22.291500 -0.000108 -0.000004 20.220300 5.393590 -2.730270 -2.192480 -6.469440 -0.000000 -172.389000 -12.900000 0.176795 39.081100 -0.000007 -0.000012 -0.145473 0.249043 30.290600 40.985400 -0.000006 -0.000013 -0.244950 9.332180 -68.320800 11.754300 -0.000000 0.000003 -0.000260 -0.002310 -16.664000 -2.192510 6.469440 -0.000001 173.711000 26.112500 -176.922000 -39.081100 -0.002282 -0.040193 -0.196230 0.353345 29.453600 -40.985400 0.000008 0.000006 6.222540 17.542500 -70.676600 -11.754300 -0.000006 -0.000006 -0.000967 -0.014941 -17.180800
